<svg width="96" height="96" viewBox="0 0 96 96" fill="none" xmlns="http://www.w3.org/2000/svg">
  <rect width="96" height="96" rx="24" fill="#16745B"/>
  <circle cx="48" cy="48" r="34" fill="#FFF7EA"/>
  <path d="M27 54C27 43.507 35.507 35 46 35H50C60.493 35 69 43.507 69 54V57H27V54Z" fill="#D7653F"/>
  <path d="M43 31C43 28.239 45.239 26 48 26C50.761 26 53 28.239 53 31V35H43V31Z" fill="#D7653F"/>
  <path d="M24 60H72" stroke="#20251F" stroke-width="5" stroke-linecap="round"/>
  <path d="M33 68H63" stroke="#20251F" stroke-width="5" stroke-linecap="round"/>
  <path d="M28 25C33.5 19 43 16 54 18" stroke="#FFF7EA" stroke-width="5" stroke-linecap="round"/>
  <path d="M66 22L74 27L66 32V22Z" fill="#FFF7EA"/>
  <text x="48" y="53" text-anchor="middle" font-family="Inter, Arial, sans-serif" font-size="18" font-weight="900" fill="#FFF7EA">FD</text>
</svg>